# 3ds Max Wavefront OBJ Exporter v0.97b - (c)2007 guruware
# File Created: 13.12.2012 22:55:21

#
# object tiny_weed_04
#

v  82.0590 17.3724 -0.0878
v  58.0245 17.3724 -58.1123
v  0.0000 0.0000 -0.0000
v  -0.0000 15.6482 -79.5345
v  -58.0245 17.3724 -58.1123
v  -82.0590 17.3724 -0.0878
v  -58.0245 17.3724 57.9367
v  0.0000 17.3724 81.9712
v  58.0245 17.3724 57.9367
v  35.8572 56.6058 17.8102
v  25.3549 63.8321 -6.4931
v  0.0000 -3.2928 -0.0000
v  -0.0000 64.5932 -16.0326
v  -25.3549 63.8321 -6.4931
v  -35.8572 56.6058 17.8102
v  -25.3549 49.3795 42.1135
v  0.0000 46.3862 52.1802
v  25.3549 49.3795 42.1135
v  35.8572 56.5014 -18.1577
v  25.3549 49.1340 -42.4187
v  -0.0000 44.5106 -50.7976
v  -25.3549 49.1340 -42.4187
v  -35.8572 56.5014 -18.1577
v  -25.3549 63.8687 6.1032
v  0.0000 66.9203 16.1524
v  25.3549 63.8687 6.1032
v  18.4984 56.5014 36.3785
v  42.7940 49.1340 25.9567
v  0.4597 -3.2928 0.4612
v  51.2570 44.5106 0.6298
v  42.9623 49.1340 -24.7527
v  18.7363 56.5014 -35.3355
v  -5.5593 63.8687 -24.9137
v  -15.6926 66.9203 0.4076
v  -5.7276 63.8687 25.7957
v  -17.4694 56.6058 36.2591
v  6.8686 63.8321 25.8375
v  16.4923 64.5932 0.5144
v  7.0369 63.8321 -24.8719
v  -17.2314 56.6058 -35.4549
v  -41.5694 49.3795 -25.0332
v  -51.7203 46.3862 0.2881
v  -41.7377 49.3795 25.6762
v  61.8909 32.0355 -9.4740
v  33.8498 41.9292 -44.4690
v  -0.0000 -3.2928 -0.0000
v  -11.0739 46.3438 -47.5193
v  -47.4437 46.6335 -20.6103
v  -53.0755 38.6884 24.2672
v  -25.0344 28.7947 59.2621
v  20.2534 22.7480 63.8749
v  56.2591 24.0904 35.4035
v  -39.8211 32.0355 -48.3168
v  -55.5286 41.9292 -6.3142
v  -0.0000 -3.2928 0.0000
v  -35.1521 46.3438 33.8385
v  6.5818 46.6335 51.3066
v  48.0163 38.6884 33.1713
v  63.7238 28.7947 -8.8313
v  44.5031 22.7480 -50.0967
v  1.6134 24.0904 -66.4521
v  -23.5440 32.0355 58.0165
v  20.8725 41.9292 51.8424
v  0.0000 -3.2928 0.0000
v  46.4898 46.3438 14.8127
v  41.9920 46.6335 -30.2054
v  6.3234 38.6884 -58.0165
v  -38.0931 28.7947 -51.8424
v  -65.2390 22.7480 -15.2997
v  -59.2125 24.0904 30.2054
# 70 vertices

vn -0.2071 0.9783 0.0000
vn -0.1545 0.9783 0.1382
vn 0.0000 1.0000 -0.0038
vn 0.0000 0.9812 0.1930
vn 0.1545 0.9783 0.1382
vn 0.2071 0.9783 0.0000
vn 0.1466 0.9783 -0.1465
vn 0.0000 0.9783 -0.2073
vn -0.1466 0.9783 -0.1465
vn -0.8674 0.4770 0.1418
vn -0.6212 0.3045 0.7221
vn 0.0000 0.9585 0.2850
vn 0.0000 0.2298 0.9732
vn 0.6212 0.3045 0.7221
vn 0.8674 0.4770 0.1418
vn 0.6133 0.6518 -0.4460
vn 0.0000 0.7243 -0.6895
vn -0.6133 0.6518 -0.4460
vn -0.8674 0.4762 -0.1446
vn -0.6212 0.6521 0.4347
vn -0.0000 0.9569 -0.2906
vn -0.0000 0.7282 0.6853
vn 0.6212 0.6521 0.4347
vn 0.8674 0.4762 -0.1446
vn 0.6133 0.2980 -0.7315
vn 0.0000 0.2242 -0.9745
vn -0.6133 0.2980 -0.7315
vn 0.1475 0.4762 -0.8669
vn -0.4326 0.6521 -0.6226
vn 0.2906 0.9569 0.0010
vn -0.6853 0.7282 -0.0023
vn -0.4367 0.6521 0.6197
vn 0.1417 0.4762 0.8678
vn 0.7294 0.2980 0.6157
vn 0.9745 0.2242 0.0032
vn 0.7335 0.2980 -0.6109
vn -0.1390 0.4770 -0.8678
vn -0.7200 0.3045 -0.6236
vn -0.2850 0.9585 -0.0009
vn -0.9732 0.2298 -0.0032
vn -0.7242 0.3045 0.6188
vn -0.1447 0.4770 0.8669
vn 0.4440 0.6518 0.6148
vn 0.6895 0.7243 0.0023
vn 0.4481 0.6518 -0.6118
vn -0.4349 0.8452 0.3108
vn -0.1813 0.7552 0.6300
vn 0.1113 0.9761 0.1868
vn 0.2384 0.6988 0.6744
vn 0.5711 0.7116 0.4091
vn 0.6206 0.7841 0.0010
vn 0.3632 0.8749 -0.3203
vn -0.0526 0.9304 -0.3627
vn -0.3832 0.9181 -0.1013
vn 0.4896 0.8452 0.2145
vn 0.6340 0.7552 -0.1668
vn 0.1035 0.9761 -0.1912
vn 0.4573 0.6988 -0.5500
vn 0.0591 0.7116 -0.7001
vn -0.3169 0.7841 -0.5337
vn -0.4611 0.8749 -0.1480
vn -0.2846 0.9304 0.2308
vn 0.1092 0.9181 0.3810
vn -0.0444 0.8452 -0.5327
vn -0.4484 0.7552 -0.4782
vn -0.2174 0.9761 -0.0000
vn -0.7014 0.6988 -0.1405
vn -0.6438 0.7116 0.2812
vn -0.3186 0.7841 0.5327
vn 0.0892 0.8749 0.4760
vn 0.3385 0.9304 0.1405
vn 0.2831 0.9181 -0.2773
# 72 vertex normals

vt 1.0536 0.4927 0.5000
vt 0.8912 0.8833 0.5000
vt 0.5010 0.4919 0.5000
vt 0.5002 1.0270 0.5000
vt 0.1096 0.8821 0.5000
vt -0.0517 0.4911 0.5000
vt 0.1108 0.1005 0.5000
vt 0.5018 -0.0608 0.5000
vt 0.8923 0.1017 0.5000
# 9 texture coords

g tiny_weed_04
s 1
f 1/1/1 2/2/2 3/3/3 
f 2/2/2 4/4/4 3/3/3 
f 4/4/4 5/5/5 3/3/3 
f 5/5/5 6/6/6 3/3/3 
f 6/6/6 7/7/7 3/3/3 
f 7/7/7 8/8/8 3/3/3 
f 8/8/8 9/9/9 3/3/3 
f 9/9/9 1/1/1 3/3/3 
f 10/1/10 11/2/11 12/3/12 
f 11/2/11 13/4/13 12/3/12 
f 13/4/13 14/5/14 12/3/12 
f 14/5/14 15/6/15 12/3/12 
f 15/6/15 16/7/16 12/3/12 
f 16/7/16 17/8/17 12/3/12 
f 17/8/17 18/9/18 12/3/12 
f 18/9/18 10/1/10 12/3/12 
f 19/1/19 20/2/20 12/3/21 
f 20/2/20 21/4/22 12/3/21 
f 21/4/22 22/5/23 12/3/21 
f 22/5/23 23/6/24 12/3/21 
f 23/6/24 24/7/25 12/3/21 
f 24/7/25 25/8/26 12/3/21 
f 25/8/26 26/9/27 12/3/21 
f 26/9/27 19/1/19 12/3/21 
f 27/1/28 28/2/29 29/3/30 
f 28/2/29 30/4/31 29/3/30 
f 30/4/31 31/5/32 29/3/30 
f 31/5/32 32/6/33 29/3/30 
f 32/6/33 33/7/34 29/3/30 
f 33/7/34 34/8/35 29/3/30 
f 34/8/35 35/9/36 29/3/30 
f 35/9/36 27/1/28 29/3/30 
f 36/1/37 37/2/38 29/3/39 
f 37/2/38 38/4/40 29/3/39 
f 38/4/40 39/5/41 29/3/39 
f 39/5/41 40/6/42 29/3/39 
f 40/6/42 41/7/43 29/3/39 
f 41/7/43 42/8/44 29/3/39 
f 42/8/44 43/9/45 29/3/39 
f 43/9/45 36/1/37 29/3/39 
f 44/1/46 45/2/47 46/3/48 
f 45/2/47 47/4/49 46/3/48 
f 47/4/49 48/5/50 46/3/48 
f 48/5/50 49/6/51 46/3/48 
f 49/6/51 50/7/52 46/3/48 
f 50/7/52 51/8/53 46/3/48 
f 51/8/53 52/9/54 46/3/48 
f 52/9/54 44/1/46 46/3/48 
f 53/1/55 54/2/56 55/3/57 
f 54/2/56 56/4/58 55/3/57 
f 56/4/58 57/5/59 55/3/57 
f 57/5/59 58/6/60 55/3/57 
f 58/6/60 59/7/61 55/3/57 
f 59/7/61 60/8/62 55/3/57 
f 60/8/62 61/9/63 55/3/57 
f 61/9/63 53/1/55 55/3/57 
f 62/1/64 63/2/65 64/3/66 
f 63/2/65 65/4/67 64/3/66 
f 65/4/67 66/5/68 64/3/66 
f 66/5/68 67/6/69 64/3/66 
f 67/6/69 68/7/70 64/3/66 
f 68/7/70 69/8/71 64/3/66 
f 69/8/71 70/9/72 64/3/66 
f 70/9/72 62/1/64 64/3/66 
# 0 polygons - 64 triangles

